HIERARCHY
ROOT SpineBase
{
  OFFSET 0.000000 0.000000 0.000000
  CHANNELS 6 Xposition Yposition Zposition Zrotation Xrotation Yrotation
  JOINT SpineMid
  {
    OFFSET 0.000000 30.070303 0.000000
    CHANNELS 3 Zrotation Xrotation Yrotation
    JOINT SpineShoulder
    {
      OFFSET 0.209459 22.257590 -0.772721
      CHANNELS 3 Zrotation Xrotation Yrotation
      JOINT Neck
      {
        OFFSET 0.159558 7.379296 -0.544810
        CHANNELS 3 Zrotation Xrotation Yrotation
        JOINT Head
        {
          OFFSET 4.878373 13.497105 2.415522
          CHANNELS 3 Zrotation Xrotation Yrotation
          End Site
          {
            OFFSET 0 0 0
          }
        }
      }
      JOINT ShoulderLeft
      {
        OFFSET -9.613449 -2.754318 -12.745464
        CHANNELS 3 Zrotation Xrotation Yrotation
        JOINT ElbowLeft
        {
          OFFSET -6.452891 -24.769158 -4.168470
          CHANNELS 3 Zrotation Xrotation Yrotation
          JOINT WristLeft
          {
            OFFSET 2.531217 -22.976265 -1.332096
            CHANNELS 3 Zrotation Xrotation Yrotation
            JOINT HandLeft
            {
              OFFSET 1.761858 -3.724477 0.873208
              CHANNELS 3 Zrotation Xrotation Yrotation
              JOINT HandTipLeft
              {
                OFFSET 1.065656 -6.821630 0.432690
                CHANNELS 3 Zrotation Xrotation Yrotation
                End Site
                {
                  OFFSET 0 0 0
                }
              }
              JOINT ThumbLeft
              {
                OFFSET 3.653257 -0.433779 -1.253699
                CHANNELS 3 Zrotation Xrotation Yrotation
                End Site
                {
                  OFFSET 0 0 0
                }
              }
            }
          }
        }
      }
      JOINT ShoulderRight
      {
        OFFSET 11.754475 -5.820925 10.983479
        CHANNELS 3 Zrotation Xrotation Yrotation
        JOINT ElbowRight
        {
          OFFSET -0.065752 -28.431419 9.815353
          CHANNELS 3 Zrotation Xrotation Yrotation
          JOINT WristRight
          {
            OFFSET 1.339993 -21.592619 -8.984260
            CHANNELS 3 Zrotation Xrotation Yrotation
            JOINT HandRight
            {
              OFFSET -1.167389 -2.550396 0.051663
              CHANNELS 3 Zrotation Xrotation Yrotation
              JOINT HandTipRight
              {
                OFFSET -0.491420 -4.302595 -1.541306
                CHANNELS 3 Zrotation Xrotation Yrotation
                End Site
                {
                  OFFSET 0 0 0
                }
              }
              JOINT ThumbRight
              {
                OFFSET -1.864476 0.252599 -2.972520
                CHANNELS 3 Zrotation Xrotation Yrotation
                End Site
                {
                  OFFSET 0 0 0
                }
              }
            }
          }
        }
      }
    }
  }
  JOINT HipLeft
  {
    OFFSET -4.357548 1.927630 -7.991384
    CHANNELS 3 Zrotation Xrotation Yrotation
    JOINT KneeLeft
    {
      OFFSET -7.198196 -27.234065 0.115048
      CHANNELS 3 Zrotation Xrotation Yrotation
      JOINT AnkleLeft
      {
        OFFSET -5.965548 -34.274721 5.676432
        CHANNELS 3 Zrotation Xrotation Yrotation
        JOINT FootLeft
        {
          OFFSET 8.092748 -4.352150 -9.770475
          CHANNELS 3 Zrotation Xrotation Yrotation
          End Site
          {
            OFFSET 0 0 0
          }
        }
      }
    }
  }
  JOINT HipRight
  {
    OFFSET 5.301709 -0.164674 0.961364
    CHANNELS 3 Zrotation Xrotation Yrotation
    JOINT KneeRight
    {
      OFFSET -4.671043 -28.119635 7.651981
      CHANNELS 3 Zrotation Xrotation Yrotation
      JOINT AnkleRight
      {
        OFFSET -9.672980 -28.538625 2.291665
        CHANNELS 3 Zrotation Xrotation Yrotation
        JOINT FootRight
        {
          OFFSET 4.752723 -8.330543 -1.424021
          CHANNELS 3 Zrotation Xrotation Yrotation
          End Site
          {
            OFFSET 0 0 0
          }
        }
      }
    }
  }
}
MOTION
Frames: 13
Frame Time: 0.033333
-47.384790 69.161738 332.234462 1.057247 0.156451 -40.189021 0.387026 0.391788 40.240367 0.498747 -0.377149 0.113149 14.046609 -15.067320 4.959879 0.000000 0.000000 0.000000 28.696372 10.738386 -11.875625 73.653626 -27.394870 41.017977 -91.973975 -60.717509 -15.267653 79.826648 -14.365638 -39.857173 0.000000 0.000000 0.000000 0.000000 0.000000 0.000000 16.397512 38.987396 -0.528615 -61.093050 39.599301 14.124296 -32.095888 -35.252627 -68.435039 -36.515816 17.867883 50.713762 0.000000 0.000000 0.000000 0.000000 0.000000 0.000000 4.423801 3.486344 40.098881 -6.683899 1.447983 -0.281396 -26.623011 -29.608027 10.052967 0.000000 0.000000 0.000000 2.592957 2.372074 41.340604 -4.301255 0.871637 -1.558603 -6.613344 9.148493 7.858164 0.000000 0.000000 0.000000
-47.484932 69.077842 332.390191 1.078609 0.064350 -40.198393 0.346713 0.402849 40.250358 0.501091 -0.365022 0.113200 14.032119 -15.332053 5.120218 0.000000 0.000000 0.000000 29.644587 10.845174 -12.249345 73.101491 -27.320727 41.474421 -91.809730 -60.814173 -15.090613 83.507002 -10.981505 -43.769198 0.000000 0.000000 0.000000 0.000000 0.000000 0.000000 16.463222 38.978670 -0.536970 -60.989641 39.556868 14.017358 -32.782867 -36.836076 -68.722643 -43.219912 17.192300 54.059076 0.000000 0.000000 0.000000 0.000000 0.000000 0.000000 4.514697 3.693425 40.091788 -6.848107 1.584824 -0.296929 -26.777192 -29.815890 9.968722 0.000000 0.000000 0.000000 2.481128 2.498062 41.338225 -4.272846 0.967485 -1.609552 -5.989674 8.443481 7.377223 0.000000 0.000000 0.000000
-47.598094 69.004891 332.563741 1.069463 -0.087150 -40.164266 0.276572 0.404650 40.215648 0.499332 -0.337574 0.110183 14.262140 -15.415616 5.185716 0.000000 0.000000 0.000000 30.326285 10.846382 -12.454305 72.688332 -27.254045 41.609748 -90.441609 -61.454681 -14.702697 83.975403 -7.262244 -45.532295 0.000000 0.000000 0.000000 0.000000 0.000000 0.000000 16.573531 39.043585 -0.561692 -60.872787 39.490642 13.899740 -33.643453 -37.976669 -69.168772 -48.581124 15.636746 56.477318 0.000000 0.000000 0.000000 0.000000 0.000000 0.000000 4.628599 3.995200 40.032006 -7.082788 1.742824 -0.319853 -26.820612 -29.949866 10.008857 0.000000 0.000000 0.000000 2.361898 2.692760 41.291625 -4.241807 1.084383 -1.669343 -4.526202 6.914170 6.205074 0.000000 0.000000 0.000000
-47.666755 68.948030 332.766141 1.107467 -0.295585 -40.186509 0.187371 0.425418 40.239438 0.505066 -0.301433 0.109545 14.450417 -15.428186 5.211754 0.000000 0.000000 0.000000 30.544613 10.693218 -12.440339 72.444517 -27.236427 41.372766 -89.670233 -62.024182 -14.610455 86.777982 -4.950119 -49.309439 0.000000 0.000000 0.000000 0.000000 0.000000 0.000000 16.686512 39.199768 -0.616736 -60.736011 39.365987 13.675810 -34.604551 -38.979730 -69.676717 -52.026278 14.733069 58.175252 0.000000 0.000000 0.000000 0.000000 0.000000 0.000000 4.537392 4.280886 40.016420 -7.212926 1.865823 -0.337161 -26.942962 -30.207480 9.818925 0.000000 0.000000 0.000000 2.121780 2.838390 41.286392 -4.130346 1.311040 -1.742346 -5.310527 7.391778 6.928684 0.000000 0.000000 0.000000
-47.716783 68.901911 332.974520 1.164422 -0.507333 -40.119828 0.104234 0.448149 40.175551 0.504610 -0.266330 0.109538 14.614630 -15.453678 5.245094 0.000000 0.000000 0.000000 30.391662 10.449146 -12.258271 72.297325 -27.250384 40.831424 -89.065733 -62.546144 -14.672626 86.108971 -0.102542 -49.555739 0.000000 0.000000 0.000000 0.000000 0.000000 0.000000 16.816369 39.327413 -0.669825 -60.745816 39.336096 13.554793 -35.126690 -39.869045 -69.978895 -52.234559 15.792713 58.697986 0.000000 0.000000 0.000000 0.000000 0.000000 0.000000 4.351645 4.588041 39.891343 -7.321505 1.885803 -0.337152 -27.012343 -30.416522 9.656098 0.000000 0.000000 0.000000 1.867962 2.924108 41.191937 -3.977322 1.604112 -1.821958 -3.767738 5.737836 5.807768 0.000000 0.000000 0.000000
-47.797520 68.891251 333.144704 1.168096 -0.680434 -40.006189 0.050739 0.468763 40.063270 0.513914 -0.239152 0.109075 14.781628 -15.458201 5.266317 0.000000 0.000000 0.000000 29.893431 10.131811 -11.911784 72.276028 -27.288076 40.016652 -88.650966 -63.414596 -15.228595 84.588964 -3.881019 -48.988255 0.000000 0.000000 0.000000 0.000000 0.000000 0.000000 16.967127 39.410250 -0.709534 -60.838401 39.370514 13.517656 -35.005151 -40.161316 -69.893845 -52.827787 15.275284 58.585287 0.000000 0.000000 0.000000 0.000000 0.000000 0.000000 4.280968 4.929468 39.716539 -7.478486 1.879193 -0.332261 -27.068417 -30.579237 9.621094 0.000000 0.000000 0.000000 1.768796 3.028939 41.076209 -3.917077 1.943164 -1.929696 -3.630772 5.521355 5.912513 0.000000 0.000000 0.000000
-47.873222 68.899396 333.275635 1.144838 -0.798488 -39.835218 0.031860 0.474402 39.892766 0.521486 -0.228768 0.108535 14.969291 -15.506155 5.311674 0.000000 0.000000 0.000000 29.704806 10.007111 -11.771885 72.187096 -27.301795 39.589489 -88.254810 -64.107881 -15.642465 82.496476 -6.607822 -47.673177 0.000000 0.000000 0.000000 0.000000 0.000000 0.000000 17.191811 39.275570 -0.700625 -61.437024 39.791598 13.943247 -33.928786 -40.074188 -69.435654 -50.163360 15.921266 56.725997 0.000000 0.000000 0.000000 0.000000 0.000000 0.000000 4.274816 5.230590 39.488743 -7.631852 1.850321 -0.324381 -27.143509 -30.738640 9.399244 0.000000 0.000000 0.000000 1.746495 3.115801 40.908892 -3.881332 2.240146 -2.027500 -4.186199 6.072565 6.595066 0.000000 0.000000 0.000000
-47.895861 68.906386 333.394355 1.176701 -0.900889 -39.652371 0.000590 0.471708 39.711906 0.514189 -0.211351 0.108174 15.057935 -15.618098 5.388719 0.000000 0.000000 0.000000 29.592325 9.965919 -11.713151 72.167059 -27.317714 39.394835 -90.195843 -64.438159 -17.124670 80.841744 -7.598896 -45.839435 0.000000 0.000000 0.000000 0.000000 0.000000 0.000000 17.445857 38.951135 -0.646966 -62.467024 40.510625 14.752025 -32.851506 -40.292402 -69.197589 -47.488804 17.101021 55.202578 0.000000 0.000000 0.000000 0.000000 0.000000 0.000000 4.127625 5.398965 39.260640 -7.631011 1.796077 -0.308642 -27.155318 -30.796088 9.372445 0.000000 0.000000 0.000000 1.640828 3.137411 40.716414 -3.780742 2.395377 -2.066011 -3.325783 5.248444 6.020760 0.000000 0.000000 0.000000
-47.823513 68.914040 333.506341 1.325487 -1.003281 -39.454311 -0.070527 0.454496 39.519437 0.476723 -0.191183 0.108621 14.961804 -15.771880 5.487252 0.000000 0.000000 0.000000 29.552992 9.916195 -11.691898 72.013404 -27.316399 39.216631 -92.290868 -64.781624 -18.785438 80.064505 -10.215139 -44.988411 0.000000 0.000000 0.000000 0.000000 0.000000 0.000000 17.594944 38.500724 -0.563090 -63.712768 41.375387 15.863814 -30.797733 -39.999578 -68.417156 -42.618190 18.845363 52.587212 0.000000 0.000000 0.000000 0.000000 0.000000 0.000000 3.646955 5.426920 39.010782 -7.399945 1.579168 -0.259337 -27.121855 -30.761426 9.384947 0.000000 0.000000 0.000000 1.344303 3.017771 40.481876 -3.616471 2.553979 -2.079232 -7.757125 8.745048 9.415038 0.000000 0.000000 0.000000
-47.831621 68.919096 333.557496 1.360337 -1.008965 -39.390977 -0.061820 0.424742 39.457832 0.456130 -0.186895 0.108191 14.833063 -15.922922 5.585222 0.000000 0.000000 0.000000 29.723522 9.918377 -11.750801 71.794922 -27.303610 39.199304 -94.539237 -64.889128 -20.355500 79.587367 -11.222468 -44.211929 0.000000 0.000000 0.000000 0.000000 0.000000 0.000000 17.715110 38.027961 -0.464354 -64.937129 42.198443 17.035054 -28.668569 -39.371073 -67.582624 -38.152171 18.942037 49.673027 0.000000 0.000000 0.000000 0.000000 0.000000 0.000000 3.561195 5.412802 38.939413 -7.330115 1.586454 -0.254673 -27.035886 -30.676298 9.397235 0.000000 0.000000 0.000000 1.321377 3.011071 40.421025 -3.671369 2.666642 -2.125197 -9.625670 10.237759 11.033897 0.000000 0.000000 0.000000
-47.880646 68.917439 333.570574 1.333198 -0.977668 -39.458962 -0.019500 0.411508 39.525398 0.456194 -0.194196 0.108433 14.646124 -16.067142 5.677283 0.000000 0.000000 0.000000 29.961106 9.925652 -11.832709 71.611734 -27.296892 39.278278 -95.084697 -64.781720 -20.593594 81.485127 -12.993550 -45.975327 0.000000 0.000000 0.000000 0.000000 0.000000 0.000000 17.828287 37.598427 -0.370843 -66.038824 42.899544 18.085388 -27.782975 -38.614892 -67.533817 -35.397495 20.486214 49.262971 0.000000 0.000000 0.000000 0.000000 0.000000 0.000000 3.662603 5.385948 39.022126 -7.326741 1.701686 -0.270582 -26.968409 -30.594947 9.531197 0.000000 0.000000 0.000000 1.425299 3.062723 40.509441 -3.805531 2.786512 -2.192987 -10.047612 10.844365 11.679947 0.000000 0.000000 0.000000
-47.948224 68.894978 333.573706 1.270549 -0.939435 -39.475259 0.037840 0.401635 39.540177 0.458002 -0.192817 0.107550 14.450538 -16.145817 5.731701 0.000000 0.000000 0.000000 30.269295 9.981725 -11.957187 71.483957 -27.278700 39.475541 -95.450194 -64.856479 -20.832173 85.128050 -13.990701 -49.809323 0.000000 0.000000 0.000000 0.000000 0.000000 0.000000 17.919357 37.302436 -0.303287 -66.909114 43.412853 18.908109 -26.550310 -38.421318 -67.125464 -36.300015 20.221827 49.696607 0.000000 0.000000 0.000000 0.000000 0.000000 0.000000 3.843223 5.395996 39.050900 -7.368630 1.845720 -0.292163 -26.972449 -30.603387 9.628102 0.000000 0.000000 0.000000 1.619023 3.152055 40.561548 -4.025194 2.886060 -2.266020 -8.941047 10.697480 11.341694 0.000000 0.000000 0.000000
-48.013512 68.861859 333.552498 1.201800 -0.882715 -39.520018 0.097417 0.379893 39.582944 0.466395 -0.187093 0.106412 14.284740 -16.184863 5.759952 0.000000 0.000000 0.000000 30.312838 9.901145 -11.914545 71.492800 -27.289375 39.425699 -94.160791 -64.960646 -20.024309 82.776617 -12.013693 -47.720643 0.000000 0.000000 0.000000 0.000000 0.000000 0.000000 18.003409 37.137556 -0.262024 -67.516076 43.737329 19.441265 -26.269820 -38.113417 -67.261212 -34.624286 21.717159 49.765589 0.000000 0.000000 0.000000 0.000000 0.000000 0.000000 4.078044 5.406861 39.111639 -7.510068 1.999237 -0.326013 -30.244079 -34.084574 8.810737 0.000000 0.000000 0.000000 1.861342 3.222978 40.651848 -4.255097 2.958103 -2.327903 -6.574444 9.513247 9.941490 0.000000 0.000000 0.000000
